Jump_normalized_pl05_filtered_grf
version=1
nRows=22
nColumns=37
inDegrees=yes
endheader
time		1_ground_force_vx		1_ground_force_vy		1_ground_force_vz		1_ground_force_px		1_ground_force_py		1_ground_force_pz		1_ground_torque_x		1_ground_torque_y		1_ground_torque_z		2_ground_force_vx		2_ground_force_vy		2_ground_force_vz		2_ground_force_px		2_ground_force_py		2_ground_force_pz		2_ground_torque_x		2_ground_torque_y		2_ground_torque_z		3_ground_force_vx		3_ground_force_vy		3_ground_force_vz		3_ground_force_px		3_ground_force_py		3_ground_force_pz		3_ground_torque_x		3_ground_torque_y		3_ground_torque_z		4_ground_force_vx		4_ground_force_vy		4_ground_force_vz		4_ground_force_px		4_ground_force_py		4_ground_force_pz		4_ground_torque_x		4_ground_torque_y		4_ground_torque_z		
0.465333		-0.000000		0.000000		0.000000		0.142679		0.000000		0.180650		0.000000		0.000000		-0.000000		0.000000		0.000000		0.000000		-0.199375		0.000000		0.211348		0.000000		-0.000000		0.000000		-57.312363		395.738535		-166.025511		0.413030		1.262459		1.878825		2.399145		-16.565938		6.949946		58.573375		320.737148		-141.006686		-0.353916		1.255869		1.905119		3.162138		17.315295		-7.612358		
0.468263		-0.000000		-0.000000		-0.000000		0.142679		0.000000		0.180650		-0.000000		-0.000000		0.000000		0.000000		-0.000000		0.000000		-0.199375		0.000000		0.211348		-0.000000		-0.000000		-0.000000		-53.969899		380.288313		-167.229396		0.413041		1.262511		1.878792		2.240135		-15.784653		6.941181		55.655702		303.618479		-141.203386		-0.353873		1.255900		1.905070		2.981518		16.265075		-7.564348		
0.471192		-0.000000		-0.000000		-0.000000		0.142679		0.000000		0.180650		-0.000000		-0.000000		0.000000		0.000000		-0.000000		-0.000000		-0.199375		0.000000		0.211348		-0.000000		-0.000000		-0.000000		-50.658376		364.077281		-167.579752		0.413047		1.262565		1.878756		2.083575		-14.974450		6.892513		52.692342		285.579783		-140.274764		-0.353833		1.255926		1.905008		2.797687		15.162799		-7.447834		
0.474121		-0.000000		-0.000000		-0.000000		0.142679		0.000000		0.180650		-0.000000		-0.000000		0.000000		0.000000		-0.000000		-0.000000		-0.199375		0.000000		0.211348		-0.000000		0.000000		-0.000000		-47.347732		346.997040		-166.887439		0.413048		1.262620		1.878716		1.928800		-14.135570		6.798455		49.578337		266.657552		-138.057213		-0.353794		1.255946		1.904934		2.606410		14.018605		-7.257863		
0.477051		-0.000000		-0.000000		-0.000000		0.142679		0.000000		0.180650		-0.000000		-0.000000		0.000000		-0.000000		-0.000000		-0.000000		-0.199375		0.000000		0.211348		-0.000000		0.000000		-0.000000		-43.990568		328.941121		-164.960812		0.413041		1.262676		1.878671		1.774480		-13.268735		6.654136		46.215957		246.909280		-134.414730		-0.353756		1.255961		1.904846		2.403959		12.843176		-6.991676		
0.479980		0.000000		-0.000000		-0.000000		0.142679		0.000000		0.180650		-0.000000		-0.000000		0.000000		-0.000000		-0.000000		-0.000000		-0.199375		0.000000		0.211348		-0.000000		0.000000		-0.000000		-40.531868		309.819281		-161.621185		0.413026		1.262734		1.878619		1.618967		-12.375128		6.455641		42.529530		226.419930		-129.253138		-0.353720		1.255975		1.904746		2.187788		11.647406		-6.648986		
0.482909		0.000000		-0.000000		-0.000000		0.142679		0.000000		0.180650		-0.000000		-0.000000		0.000000		-0.000000		-0.000000		-0.000000		-0.199375		0.000000		0.211348		-0.000000		0.000000		-0.000000		-36.923647		289.576187		-156.721167		0.413001		1.262790		1.878556		1.460816		-11.456530		6.200365		38.477611		205.311697		-122.539399		-0.353685		1.255986		1.904629		1.957011		10.442364		-6.232466		
0.485838		0.000000		-0.000000		-0.000000		0.142679		0.000000		0.180650		-0.000000		-0.000000		0.000000		-0.000000		-0.000000		-0.000000		-0.199375		0.000000		0.211348		-0.000000		0.000000		-0.000000		-33.131895		268.214511		-150.176997		0.412967		1.262847		1.878478		1.298969		-10.515597		5.887817		34.071200		183.759320		-114.317339		-0.353652		1.255996		1.904498		1.713133		9.239588		-5.747964		
0.488768		0.000000		-0.000000		-0.000000		0.142679		0.000000		0.180650		-0.000000		-0.000000		0.000000		-0.000000		-0.000000		-0.000000		-0.199375		0.000000		0.211348		-0.000000		0.000000		-0.000000		-29.153218		245.803271		-141.967269		0.412927		1.262902		1.878380		1.133387		-9.556049		5.519226		29.369562		161.989545		-104.712675		-0.353620		1.256007		1.904353		1.459722		8.051160		-5.204385		
0.491697		0.000000		-0.000000		0.000000		0.142679		0.000000		0.180650		-0.000000		-0.000000		0.000000		-0.000000		-0.000000		-0.000000		-0.199375		0.000000		0.211348		-0.000000		0.000000		0.000000		-25.019234		222.491021		-132.151600		0.412881		1.262956		1.878258		0.965175		-8.583084		5.098033		24.480536		140.286602		-93.940029		-0.353591		1.256019		1.904194		1.202348		6.890072		-4.613781		
0.494626		0.000000		0.000000		0.000000		0.142679		0.000000		0.180650		0.000000		0.000000		-0.000000		-0.000000		0.000000		0.000000		-0.199375		0.000000		0.211348		0.000000		0.000000		0.000000		-20.797424		198.510358		-120.878305		0.412832		1.263005		1.878110		0.796626		-7.603727		4.630110		19.551748		118.987618		-82.299365		-0.353565		1.256034		1.904020		0.948169		5.770314		-3.991106		
0.497556		0.000000		0.000000		0.000000		0.142679		0.000000		0.180650		0.000000		0.000000		-0.000000		-0.000000		0.000000		0.000000		-0.199375		0.000000		0.211348		0.000000		-0.000000		0.000000		-16.586961		174.175454		-108.385954		0.412782		1.263049		1.877930		0.631107		-6.627082		4.123901		14.756005		98.469519		-70.163292		-0.353543		1.256048		1.903834		0.705317		4.706681		-3.353685		
0.500485		0.000000		0.000000		0.000000		0.142679		0.000000		0.180650		0.000000		0.000000		-0.000000		0.000000		0.000000		0.000000		-0.199375		0.000000		0.211348		0.000000		-0.000000		0.000000		-12.510185		149.873056		-94.997458		0.412731		1.263085		1.877716		0.472825		-5.664477		3.590444		10.273501		79.129093		-57.955082		-0.353526		1.256063		1.903637		0.482238		3.714300		-2.720396		
0.503414		-0.000000		0.000000		0.000000		0.142679		0.000000		0.180650		0.000000		0.000000		-0.000000		0.000000		0.000000		0.000000		-0.199375		0.000000		0.211348		0.000000		-0.000000		0.000000		-8.699645		126.050725		-81.106926		0.412683		1.263109		1.877471		0.326421		-4.729527		3.043197		6.271760		61.357352		-46.121364		-0.353514		1.256075		1.903431		0.287023		2.807870		-2.110625		
0.506343		-0.000000		0.000000		0.000000		0.142679		0.000000		0.180650		0.000000		0.000000		-0.000000		0.000000		0.000000		0.000000		-0.199375		0.000000		0.211348		0.000000		-0.000000		0.000000		-5.285062		103.185888		-67.162542		0.412639		1.263123		1.877197		0.196551		-3.837382		2.497707		2.883076		45.492803		-35.090759		-0.353510		1.256084		1.903220		0.576371		5.262028		2.716036		
0.509273		-0.000000		0.000000		0.000000		0.142679		0.000000		0.180650		0.000000		0.000000		-0.000000		0.000000		0.000000		0.000000		-0.199375		0.000000		0.211348		0.000000		-0.000000		0.000000		-2.379530		81.761900		-53.631915		0.412599		1.263122		1.876902		0.087439		-3.004207		1.970616		0.194217		31.802667		-25.239152		-0.353512		1.256088		1.903007		0.594562		4.839617		3.433868		
0.512202		-0.000000		0.000000		0.000000		0.142679		0.000000		0.180650		0.000000		0.000000		-0.000000		0.000000		0.000000		0.000000		-0.199375		0.000000		0.211348		0.000000		-0.000000		0.000000		-0.065589		62.235371		-40.971207		0.412566		1.263109		1.876588		0.727313		-7.669790		-6.761262		-1.763168		20.451224		-16.856087		-0.353521		1.256086		1.902795		0.430831		3.160748		2.331074		
0.515131		-0.000000		0.000000		-0.000000		0.142679		0.000000		0.180650		0.000000		0.000000		-0.000000		0.000000		0.000000		0.000000		-0.199375		0.000000		0.211348		0.000000		-0.000000		0.000000		1.615753		45.000491		-29.588012		0.412542		1.263080		1.876265		0.585225		-5.527690		-4.936504		-3.014368		11.481300		-10.118412		-0.353535		1.256076		1.902588		0.295135		1.809985		1.454745		
0.518061		-0.000000		-0.000000		-0.000000		0.142679		0.000000		0.180650		-0.000000		-0.000000		0.000000		0.000000		-0.000000		-0.000000		-0.199375		0.000000		0.211348		-0.000000		-0.000000		-0.000000		2.670958		30.353085		-19.805347		0.412529		1.263038		1.875940		0.454457		-3.689940		-3.378936		-3.636704		4.808655		-5.075934		-0.353554		1.256061		1.902386		0.187814		0.790126		0.793994		
0.520990		-0.000000		-0.000000		-0.000000		0.142679		0.000000		0.180650		-0.000000		-0.000000		0.000000		0.000000		-0.000000		-0.000000		-0.199375		0.000000		0.211348		-0.000000		0.000000		-0.000000		3.153572		18.461072		-11.832820		0.412526		1.262985		1.875620		0.337817		-2.190986		-2.104786		-3.747872		0.232139		-1.652744		-0.353578		1.256038		1.902193		0.107785		0.083075		0.328814		
0.523919		-0.000000		-0.000000		-0.000000		0.142679		0.000000		0.180650		-0.000000		-0.000000		0.000000		-0.000000		-0.000000		-0.000000		-0.199375		0.000000		0.211348		-0.000000		0.000000		-0.000000		3.158428		9.348653		-5.750214		0.412534		1.262925		1.875312		0.237849		-1.042886		-1.116583		-3.489591		-2.541932		0.335180		-0.353602		1.256012		1.902008		0.052653		-0.347179		0.032182		
0.526848		-0.000000		-0.000000		-0.000000		0.142679		0.000000		0.180650		-0.000000		-0.000000		0.000000		-0.000000		-0.000000		-0.000000		-0.199375		0.000000		0.211348		-0.000000		0.000000		-0.000000		2.812205		2.866483		-1.487626		0.412551		1.262860		1.875020		0.156221		-0.231390		-0.399905		-3.011645		-3.880938		1.161108		-0.353628		1.255982		1.901832		0.018809		-0.551726		-0.128663		
